<svg id="visual" viewBox="0 0 900 600" xmlns="http://www.w3.org/2000/svg" xmlns:xlink="http://www.w3.org/1999/xlink" version="1.1" preserveAspectRatio="none"><path d="M0 43L13.7 45C27.3 47 54.7 51 82 56C109.3 61 136.7 67 163.8 69C191 71 218 69 245.2 69C272.3 69 299.7 71 327 72C354.3 73 381.7 73 409 71C436.3 69 463.7 65 491 65C518.3 65 545.7 69 573 72C600.3 75 627.7 77 654.8 78C682 79 709 79 736.2 80C763.3 81 790.7 83 818 77C845.3 71 872.7 57 886.3 50L900 43L900 0L886.3 0C872.7 0 845.3 0 818 0C790.7 0 763.3 0 736.2 0C709 0 682 0 654.8 0C627.7 0 600.3 0 573 0C545.7 0 518.3 0 491 0C463.7 0 436.3 0 409 0C381.7 0 354.3 0 327 0C299.7 0 272.3 0 245.2 0C218 0 191 0 163.8 0C136.7 0 109.3 0 82 0C54.7 0 27.3 0 13.7 0L0 0Z" fill="#ffffff"></path><path d="M0 199L13.7 213C27.3 227 54.7 255 82 269C109.3 283 136.7 283 163.8 270C191 257 218 231 245.2 234C272.3 237 299.7 269 327 276C354.3 283 381.7 265 409 259C436.3 253 463.7 259 491 250C518.3 241 545.7 217 573 220C600.3 223 627.7 253 654.8 278C682 303 709 323 736.2 319C763.3 315 790.7 287 818 283C845.3 279 872.7 299 886.3 309L900 319L900 41L886.3 48C872.7 55 845.3 69 818 75C790.7 81 763.3 79 736.2 78C709 77 682 77 654.8 76C627.7 75 600.3 73 573 70C545.7 67 518.3 63 491 63C463.7 63 436.3 67 409 69C381.7 71 354.3 71 327 70C299.7 69 272.3 67 245.2 67C218 67 191 69 163.8 67C136.7 65 109.3 59 82 54C54.7 49 27.3 45 13.7 43L0 41Z" fill="#e3eaf5"></path><path d="M0 271L13.7 284C27.3 297 54.7 323 82 346C109.3 369 136.7 389 163.8 382C191 375 218 341 245.2 334C272.3 327 299.7 347 327 358C354.3 369 381.7 371 409 371C436.3 371 463.7 369 491 350C518.3 331 545.7 295 573 295C600.3 295 627.7 331 654.8 362C682 393 709 419 736.2 417C763.3 415 790.7 385 818 376C845.3 367 872.7 379 886.3 385L900 391L900 317L886.3 307C872.7 297 845.3 277 818 281C790.7 285 763.3 313 736.2 317C709 321 682 301 654.8 276C627.7 251 600.3 221 573 218C545.7 215 518.3 239 491 248C463.7 257 436.3 251 409 257C381.7 263 354.3 281 327 274C299.7 267 272.3 235 245.2 232C218 229 191 255 163.8 268C136.7 281 109.3 281 82 267C54.7 253 27.3 225 13.7 211L0 197Z" fill="#c7d5eb"></path><path d="M0 499L13.7 495C27.3 491 54.7 483 82 484C109.3 485 136.7 495 163.8 504C191 513 218 521 245.2 516C272.3 511 299.7 493 327 481C354.3 469 381.7 463 409 461C436.3 459 463.7 461 491 461C518.3 461 545.7 459 573 461C600.3 463 627.7 469 654.8 481C682 493 709 511 736.2 521C763.3 531 790.7 533 818 529C845.3 525 872.7 515 886.3 510L900 505L900 389L886.3 383C872.7 377 845.3 365 818 374C790.7 383 763.3 413 736.2 415C709 417 682 391 654.8 360C627.7 329 600.3 293 573 293C545.7 293 518.3 329 491 348C463.7 367 436.3 369 409 369C381.7 369 354.3 367 327 356C299.7 345 272.3 325 245.2 332C218 339 191 373 163.8 380C136.7 387 109.3 367 82 344C54.7 321 27.3 295 13.7 282L0 269Z" fill="#aac1e1"></path><path d="M0 601L13.7 601C27.3 601 54.7 601 82 601C109.3 601 136.7 601 163.8 601C191 601 218 601 245.2 601C272.3 601 299.7 601 327 601C354.3 601 381.7 601 409 601C436.3 601 463.7 601 491 601C518.3 601 545.7 601 573 601C600.3 601 627.7 601 654.8 601C682 601 709 601 736.2 601C763.3 601 790.7 601 818 601C845.3 601 872.7 601 886.3 601L900 601L900 503L886.3 508C872.7 513 845.3 523 818 527C790.7 531 763.3 529 736.2 519C709 509 682 491 654.8 479C627.7 467 600.3 461 573 459C545.7 457 518.3 459 491 459C463.7 459 436.3 457 409 459C381.7 461 354.3 467 327 479C299.7 491 272.3 509 245.2 514C218 519 191 511 163.8 502C136.7 493 109.3 483 82 482C54.7 481 27.3 489 13.7 493L0 497Z" fill="#8dadd7"></path></svg>